<?xml version="1.0" encoding="UTF-8"?>
<svg xmlns="http://www.w3.org/2000/svg" version="1.1" viewBox="0 0 113.4 113.4">
  <defs>
    <style>
      .cls-1 {
        fill: #231f20;
      }
    </style>
  </defs>
  <!-- Generator: Adobe Illustrator 28.7.9, SVG Export Plug-In . SVG Version: 1.2.0 Build 218)  -->
  <g>
    <g id="Layer_1">
      <path class="cls-1" d="M71.4,15.1h.4c.4,1.1.7,2.1,1,3.2.5,1.5,1.1,3,1.6,4.5,1.1,3.3,1.7,6.7,2.8,10,1,3,2.2,5.9,3,9,.1.5,0,1.1.5,1.4.8,2,1.4,4.4,2.3,6.4.8,1.7,1.8,2.7,2.3,4.7.2.6.5.7.7,1.1.3.5.4,1.3.7,1.8.4.8.4.9.7,1.8,0,.2.3.5.4.6.2,1,.6,1.9.9,2.9.6,1.9,1,4,1.7,5.9s1.6,3.3,1.9,5.3c0,.1.1.2.1.4,0,.4-.3.6-.5.9,0,0-.3.1-.3.2,0,.1,0,.3-.1.4-.1.1-.6.2-.6.5.4,0,.5.3.7.4.4.3,1.2.5,1.5.8.1.1,0,.2.1.3.2.2.9.2,1.1.3.2.1.9,1.3.9,1.5,0,.4-.3.5-.5.8-.9,1.3-1.4,2.9-2,4.4-.9,2.1-1.9,4.2-2.8,6.3-.2.5-.8,1.1-1,1.5-.9,2-2.3,3.9-3,5.9-.1.3-.1.9-.3,1.2,0,0-.8,1-.9,1-.3.2-1,.5-1.3.6-.7.2-1.2-.3-1.9-.4-.2,0-.4.3-.7.4-.5.2-2.1.1-2.3.5v.6c0,.2.3.3.4.5.2.2.3.8.5,1,.1.2.5.3.6.4,0,0,.4.7.5.8.2.4.2,1,.4,1.4.2.5.5,1,.7,1.5.1.4.2.7-.2.8-.9.3-2.7-.2-3.5-.7-.5-.3-1-.8-1.4-1.2-.2-.2-.2-.5-.5-.5l-.9.7c-.7.3-1.3.1-2,.2-1,.1-1.5.3-2.5.2-1.2,0-3.1-.2-4.2-.7,0,0-.3,0-.3,0,0,0,0-.3-.1-.4-.4.3-.8.8-1.3,1-1.3.7-2.9.5-4.3.1,0,0,0-.7,0-.8,0-.2.2-.4.3-.6.3-.8.5-1.9.9-2.6.2-.4.8-.7,1.1-1.1,0-.2-.6-.4-.7-.5,0,0-.3-.3-.3-.3,0-.1-.2-.7-.3-.8,0-.1-.3,0-.2-.3,0,0-1,.7-1.2.8-.5.3-1.1.6-1.5,1-.9.6-1.8,2.3-3.2,1.8-.5-.2-2-1.3-2.4-1.7-.7-.8-.3-2-.4-2.9,0-.6-.2-1.4-.3-2.1-.3-2.6-.7-5.2-1.2-7.7-.4-.4-.3-1.4-.4-2.1-.6-4.5-1.9-8.8-2.2-13.4-.2-3.2-.2-6.5.5-9.5,0-.3.2-.7.3-1,.1-1,0-2.1.1-3,0-.3.6-.7.8-1,.6-.7,1.2-1.1,1.8-1.7,4.2-4.7,6.1-12.8,7.8-18.8,1-3.5,2.1-7,2.9-10.6.3-1.5.8-7.2,1.2-8.2.4-1.1,0-3.9.8-4.7,2.2-2.3,6.6-.2,6.8,0h0Z"/>
      <path class="cls-1" d="M3.7,20.1c11.4.7,22.8,1.7,34.2.9.9,0,12.2-.9,12.3-1.1.6-.1,1.2-.2,1.7-.3,9.8-1.4,19.7-2.7,29.5-4.3,6.4-1,12.8-1.1,19.2-.5,2.6.2,5.2-.4,7.9-.7.2,0,.4-.5.7-.8-.2-.3-.4-.7-.7-.8-.3-.2-.6,0-.9,0-5.5-.5-11-1-16.5-1.4-2.3-.2-4.6-.2-6.8,0-3.8.5-7.6,1.8-11.4,2-5.2.3-10.4,0-15.5-.1-1.8,0-3.6-1-5.4-.8-9.8.9-19.6.4-29.4-1-5.5-.8-14.4-4.3-20-4.5l1.3,13.5h0Z"/>
    </g>
  </g>
</svg>