<?xml version="1.0" encoding="UTF-8"?>
<svg id="Layer_1" xmlns="http://www.w3.org/2000/svg" version="1.1" viewBox="0 0 113.39 113.39">
  <!-- Generator: Adobe Illustrator 29.7.1, SVG Export Plug-In . SVG Version: 2.1.1 Build 8)  -->
  <defs>
    <style>
      .st0 {
        fill: #231f20;
      }
    </style>
  </defs>
  <path class="st0" d="M86.28,12.46l.25.02c.24.6.4,1.23.61,1.85.3.88.66,1.74.95,2.63.62,1.92,1.02,3.96,1.64,5.87.58,1.76,1.32,3.48,1.79,5.28.08.31.02.66.3.85.5,1.19.83,2.62,1.36,3.78.46,1,1.04,1.6,1.33,2.74.09.33.29.42.41.66.15.29.25.74.41,1.07.24.49.26.51.43,1.05.04.14.2.31.21.37.13.56.37,1.13.55,1.71.35,1.12.56,2.38,1.01,3.46s.93,1.94,1.12,3.11c.01.07.07.12.08.21.01.23-.16.37-.31.51-.05.05-.15.07-.19.1-.05.06-.03.16-.08.21-.07.06-.37.1-.37.31.23-.01.3.19.41.26.24.17.71.27.9.5.06.07.02.14.07.19.1.1.53.13.65.2.11.06.51.76.51.89,0,.24-.17.29-.28.46-.53.79-.81,1.71-1.19,2.59-.55,1.24-1.09,2.47-1.63,3.71-.12.28-.49.64-.61.91-.51,1.16-1.37,2.29-1.77,3.49-.07.2-.08.55-.18.72-.03.05-.49.58-.54.61-.15.11-.6.3-.77.34-.4.09-.72-.18-1.1-.26-.14.05-.25.17-.39.21-.29.09-1.22.06-1.34.31,0,.02,0,.3,0,.33.03.11.18.19.25.29.09.14.18.46.28.59.07.1.28.15.37.25.02.03.26.42.3.49.12.22.13.56.22.81.11.3.32.56.41.9.06.21.14.41-.13.48-.55.15-1.57-.14-2.07-.42-.31-.18-.6-.45-.84-.72-.1-.11-.14-.27-.29-.32l-.54.39c-.4.19-.78.08-1.18.14-.57.08-.88.16-1.48.12-.73-.05-1.82-.13-2.48-.39-.05-.02-.15-.01-.16-.02-.02-.02.03-.2-.06-.24-.26.18-.47.45-.75.61-.77.44-1.69.3-2.52.08-.02-.02,0-.43,0-.5.02-.12.14-.23.19-.35.17-.45.31-1.1.53-1.52.14-.25.5-.41.66-.65.02-.11-.33-.26-.41-.32-.02-.02-.19-.18-.2-.19-.04-.08-.09-.4-.17-.5-.05-.06-.17.04-.13-.19-.03-.04-.61.44-.69.49-.29.19-.64.36-.91.57-.51.38-1.08,1.34-1.88,1.05-.27-.1-1.18-.79-1.39-1.01-.44-.45-.17-1.17-.22-1.73-.03-.38-.12-.83-.16-1.23-.17-1.52-.43-3.04-.7-4.56-.25-.25-.19-.85-.25-1.23-.35-2.67-1.12-5.2-1.31-7.89-.13-1.87-.11-3.83.3-5.62.04-.19.13-.39.15-.59.06-.56-.05-1.25.06-1.79.04-.2.34-.43.48-.59.36-.39.73-.65,1.07-1.03,2.47-2.76,3.58-7.57,4.57-11.08.58-2.05,1.24-4.15,1.7-6.23.2-.89.48-4.22.68-4.83.21-.64.03-2.32.46-2.78,1.27-1.35,3.87-.1,4,.03Z"/>
  <path class="st0" d="M13.68,16.57c10.18.44,20.37,1,30.57.53.8-.04,1.66-.02,2.41.22,1.51.49,3.01,1.06,4.43,1.78,2.34,1.19,4.68,2.26,7.35,2.37.91.04,1.81.13,2.71.28,3.83.66,7.64,1.36,11.58.89,6.45-.78,12.92-1.34,19.42-1.09.98.04,1.96.31,2.94.46.34.05.7.16,1.01.08.26-.06.59-.32.64-.55.04-.19-.22-.58-.44-.67-.64-.25-1.3-.46-1.98-.55-1.52-.2-3.06-.28-4.58-.49-4.01-.58-8.02-.95-12.08-.5-2.77.31-5.6.66-8.34.4-3.91-.37-7.78-1.27-11.65-2-.86-.16-1.68-.59-2.52-.89.02-.13.04-.26.07-.38.51-.06,1.03-.12,1.55-.17,8.8-.83,17.61-1.6,26.4-2.52,5.73-.6,11.44-.62,17.19-.31,2.33.13,4.69-.26,7.03-.44.21-.02.39-.3.59-.46-.21-.17-.4-.4-.64-.49-.25-.09-.56-.03-.84-.05-4.91-.28-9.82-.59-14.74-.81-2.03-.09-4.08-.13-6.11.05-3.4.31-6.77,1.04-10.17,1.18-4.63.19-9.27.04-13.91-.06-1.62-.04-3.24-.6-4.84-.5-8.79.53-17.55.22-26.31-.58-4.93-.45-12.93-2.51-17.87-2.63l1.14,7.93Z"/>
</svg>