<?xml version="1.0" encoding="UTF-8"?>
<svg id="Layer_1" xmlns="http://www.w3.org/2000/svg" version="1.1" viewBox="0 0 425.2 425.2">
  <!-- Generator: Adobe Illustrator 29.8.2, SVG Export Plug-In . SVG Version: 2.1.1 Build 3)  -->
  <defs>
    <style>
      .st0 {
        fill: #dbdbdb;
      }
    </style>
  </defs>
  <path class="st0" d="M235.25,147.06l-.82,3.29-7.57-1.62,3.34,3.3-5.02,2.52,3.35,1.65-5.03,5.82c4.7-.57,7.47-4.65,12.7-4.87,15.16-.65,33.7,13.21,40.5,26.18,16.43,31.34,5.64,69.65-22.46,90.02-21.36,15.48-65.54,19.67-80.82-5.79-5.64-9.4-4.42-26.55,3.89-33.96,2.6-2.32,6.96-2.05,7.6-4.93l-10.04,3.32,5.02-6.65-9.23,4.98-1.66-3.32c-4.21,5.72-.49,9.78-8.32,13.37l-7.61,13.26c-32.93-57.97,17.48-123.17,82.18-106.58ZM215.11,152.06c-7.82-.91-15.39.32-18.78,7.97l-2.74-1.04c-3.84,8.8-16.27,13.18-22.16,20.48-2.92,3.62-2.95,10.05-6.89,14.81-2.74,3.31-16.67,11.64-16.64,15.2.02,2.94,5.68,7.6,8.41,8.45,14.58,4.56,42.1-2.2,53.83-11.77l-3.41-5.79c11.7-1.96,10.95,4.05,15.71,9.4,7.66,8.62,10.87,10.6,17.11,20.45,2.68,4.23,13.61,10.69,12.31,15.63-2.35,9-23.55,6.31-30.45,4.04-5.09-1.67-8.19-6.3-14.68-4.56l1.66,8.32c-4.26-2.45-14.52-5.41-16.43,1.15-6.01,20.67,24.63,20.1,37.24,18.67,51.77-5.88,67.77-85.1,14.89-102.72-10.15-3.38-41.76-3.09-28.98-18.68ZM229.59,223.79c-6.75,1.52-2.87,11.57,3.12,9.86,5.29-1.51,1.01-10.8-3.12-9.86Z"/>
  <path class="st0" d="M144.65,177.03c-4.16,14.7-4.96,20.46-19.67,26.26-22.18,8.73-44.27,8.66-67.53,7.07-1.62,4.25,6.97,4.56,9.41,4.8,22.74,2.24,49.4-2.12,69.4-13.13-.1,13.02,2.98,17.76-7.57,26.61-10.81,9.07-24.02,10.75-37.71,11.7-.15,3.54-.74,3.14,2.5,3.34,15.91.95,31.85-5.64,42.77-16.67l8.51,24.05-9.33,7.57c-7.97-9.35-17.42-14.13-29.98-13.11-7.4.6-13.8,4.69-21.17,4.82,1.57-16.87-13.45-31.89-29.49-34.85-3.54-.65-7.49.33-11.25-.48-5.94-1.28-10.21-13.26-14.64-18.77-6.91-8.58-17-15.08-23.45-24.17,13.9,4.74,27.16,11.13,41.58,14.5,32.28,7.52,68.04,6.7,97.63-9.51Z"/>
  <path class="st0" d="M419.76,172.05c-11.52,14.17-28.47,24.77-33.63,43.25-21.92-3.62-45.76,11.06-45.22,35.03-16.5-4.9-39.65-10.6-48.67,8.32-16.39-8.38-.85-18.48-1.63-31.65,10.04,9.4,25.29,17.12,39.42,16.81,2.9-.06,5.62-.01,7.53-2.66-14.37-2.55-30.94-3.95-42-14.91-5.94-5.89-1.99-16.25-4.94-24.22,21.06,10.67,45.77,15.26,69.4,13.13,2-.18,10.34-.73,9.43-3.96-.9-3.16-19.15.73-22.48.68-13.48-.21-40.41-4.78-51.93-11.76-7.31-4.42-9.07-13.7-11.13-21.41,8.45,4.29,17.48,7.29,26.8,9.18,30.91,6.26,58.57,2.75,88.12-7.48,7.1-2.46,13.73-6.28,20.93-8.35Z"/>
  <path class="st0" d="M180.98,182.23l3.95,2.33c-4.97,16.53-21.31,5.86-3.95-2.33Z"/>
</svg>