<?xml version="1.0" encoding="UTF-8"?>
<svg id="Layer_1" xmlns="http://www.w3.org/2000/svg" version="1.1" viewBox="0 0 425.2 425.2">
  <!-- Generator: Adobe Illustrator 29.8.2, SVG Export Plug-In . SVG Version: 2.1.1 Build 3)  -->
  <defs>
    <style>
      .st0 {
        fill: #dbdbdb;
      }
    </style>
  </defs>
  <path class="st0" d="M244.57,100.71c-1.8,9.14-5.6,18-6.91,27.26-3.13,22.14,4.04,45.4,16.19,63.71-4.86,9.09-6.79,20.24-7.76,30.5-.31,3.35-.8,8.81-.77,12.05.01,1.63.34,3.06.77,4.6,3.43.09,3.43-3.53,5.35-5.63,5.41-5.89,35.91-11.91,44.61-15.64,33.43.89,66.62,4.82,99.6,9.93.21,1.84,0,1.13-1.04,1.43-7.46,2.2-14.98,2.78-22.34,6.02-7,3.08-14.42,7.4-8.6,15.71l-.21.95c-8.82,4.18-17.25,9.46-22.52,17.93-5.84,9.38-6.72,20.31-9.74,30.68-12.32-1.28-21.82-4.07-31.69,5.51-13.3,12.91-22.21,44.87-9.45,60.34,5.44,6.59,11.67,3.33,18.04,8.19,4.13,3.15,13.15,11.02,4.26,14.15-1.54-4.54-3.25-2.77-6.29-4.32-6.09-3.1-6.33-9.16-17.3-10.39-3.76-.42-4.07,1.46-6.52,3.74,0,1.54,11.47,3.4,13.7,4.71,1.78,1.04,11.1,11.11,11.92,12.89,1.4,3.02,2.49,6.7-1.19,8.27-.11-3.2-2.24-2.2-3.85-3.23-2.72-1.75-5.76-4.09-8.79-6.09-5.92-3.92-5.21-7.05-13.93-9.47-34.75-9.62-75.04.8-108.3-10.08-19.07-6.24-33.68-20.36-50.53-26.74-9.19-3.48-20.02-4.11-29.59-7.27-7.89-2.61-14.52-7.23-23.2-7.99-6.68-.59-14.13,1.12-20.18-3.21-.36-.25-4.83-6.08-4.85-6.49-.08-2.22,4.87-3.55,6.5-4.61,2.34-1.52,9.52-5.18,10.38-5.93,1.01-.88,1.3-2.65,2.5-3.88,3.92-4.04,11.56-7.82,16-11.65l.69-8.88c2.14-1.47,8.74,6.29,11.13,6.9,2.1.54,4.27-.12,6.59.5,2.64.71,6.62,4.17,9.03,5.15,3.23,1.32,7.45.61,10.58,2.91,2.14.21,6.21-8.94,7.21-10.98,10.53-21.47,17.64-48.92,13.38-72.73-3.14-17.56-8.12-30.84-27.28-34.39-6.71-1.24-14.25.61-19.67-3.71l-.35,2.1c-6.97-.16-9.4-7.48-1-8.44,7.58-.87,11.93,3.45,18.57,5.4,5.13,1.51,18.45,4.42,22.15-.13,3.26-4.02,7.22-26.76,7.69-32.72.49-6.34-1.21-16.43-.32-21.55,1.71-9.79,18.65-42.89,25.56-50.33,4.02-4.33,11.86-8.24,16.68-12.38,5.54-4.76,10.41-11.11,15.96-15.94,10.51-9.14,23.32-16.95,34.35-25.54.69.91-2.9,11.84-3.33,14.04-4.51,23.13-4.46,51.27,18.12,64.77ZM196.48,227.49c7.3-3.99,11.08-12.53,12.57-20.38,3.99-21.07-.47-44.12-5-64.82-1.5-6.84-3.65-13.58-5.1-20.43-1.47,5.22-2.19,10.72-3.07,16.08-3.3,20.02-12.24,61.46-8.29,79.66.93,4.3,3.68,8.1,2.43,13.02l-11.27,38c-1.17,1.13-3.09-3.93-3.44-4.71-4.76-10.67-.78-9.78,1.68-18.68,5.42-19.65-1.8-43.9-2.52-64.13-.45-12.72,1.35-25.28,1.44-37.95l-3.67,5.89c-8.3,20.77-15.81,42.75-16.91,65.32-.65,13.29.32,33.12,12.78,40.79-4.42-21.59-4.7-44.38-2.12-66.3.12-1.06.56-2.17,1.42-1.05-1.3,25.72-2.15,51.61,6.37,76.22,2.53,7.3,7.9,19.74,12.46,25.82.74.98,1.73,2.36,3.14,2.16.59-.57-7.61-11.98-8.18-14.15-3.41-12.96,8.38-36.29,12.08-49.65,5.52-19.94,7.47-40.61,6.74-61.31l1.4-6.03c2.04,22.23-.06,44.92-4.95,66.63ZM295.71,277.12c-18.01-4.7-37.84-7.12-56.14-2.63-11.73,2.87-12.23,5.22-20.79,11.82-4.51,3.48-10.73,7.14-14.74,10.78-.69.63-1.52.64-1.19,1.99h7.08s-2.37-.69-2.37-.69l-.47-1.79c.45-1.41,10.59-1.3,12.37-1.02,2.31.36,4.53,2.44,6.91,3.02,7.46,1.8,16.52-1.18,23.97-2.36l-20.88-3.56c-2.68.51-7.23-1.27-8.88,1.43,2.24.41,4.46,1.2,6.75,1.41,2.97.27,7.74-1.15,9.56,1.42-8.96,1.25-16.68-2.98-25.52-2.12-.37-2.78,2.44-3.95,4.31-5.25,12.99-9.02,32.73-10.76,48.14-12.46l-26.67,5.57-15.86,5.06c-.29,1.85,1.97,2.4,3.36,2.65,12.9,2.35,25.71-4.04,37.75-7.27,10.56-2.83,19.87-4.93,30.84-5.32.86-.03,2.64.53,2.47-.7ZM212.07,301.93c.9,8.15,8.65,13.09,14.94,17.31,8.95,6,18.99,10.6,27.81,16.85l16.07,12.99c-8.52-14.84-19.85-31.08-33.67-41.47-7.9-5.94-14.23-7.77-24.1-8.51-.78-.06-2.64-.52-2.46.69,1.16-.02,2.28.04,3.35.56,12.82,6.14,25.63,15.29,35.63,25.33.11.53-.74.48-1.05.35-1.04-.46-6.72-6.39-8.53-7.78-8.4-6.47-18.18-12.22-27.98-16.32Z"/>
</svg>