<?xml version="1.0" encoding="UTF-8"?>
<svg id="Layer_1" xmlns="http://www.w3.org/2000/svg" version="1.1" viewBox="0 0 384 512">
  <!-- Generator: Adobe Illustrator 29.7.1, SVG Export Plug-In . SVG Version: 2.1.1 Build 8)  -->
  <defs>
    <style>
      .st0 {
        fill: none;
        stroke-linecap: round;
        stroke-linejoin: round;
      }

      .st0, .st1 {
        stroke: #000;
        stroke-width: 29px;
      }

      .st1 {
        fill: #231f20;
        stroke-miterlimit: 10;
      }
    </style>
  </defs>
  <path class="st0" d="M187.23,60.93c0-23.01,18.65-41.65,41.65-41.65s41.65,18.65,41.65,41.65-18.65,41.65-41.65,41.65-41.65-18.65-41.65-41.65h0ZM231.75,219.49l-16.57,66.22,43.13,43.13c7.81,7.81,12.23,18.39,12.23,29.42v77.59c0,15.37-12.41,27.77-27.77,27.77s-27.77-12.41-27.77-27.77v-71.77l-64.14-64.14c-13.71-13.71-19.27-33.5-14.67-52.33l17.71-72.9c7.2-29.6,37.06-47.65,66.56-40.27,16.49,4.16,30.9,14.23,40.27,28.38l24.65,36.97h26.82v-20.83c0-11.54,9.29-20.83,20.83-20.83s20.83,9.29,20.83,20.83v263.83c0,11.54-9.29,20.83-20.83,20.83s-20.83-9.29-20.83-20.83v-187.46h-34.2c-13.89,0-26.9-6.94-34.62-18.57l-11.54-17.35-.08.08h-.02.01ZM90.99,428.81l31.42-119.68c2.6,3.64,5.56,7.12,8.77,10.33l36.36,36.36-22.91,87.04c-3.9,14.84-19.09,23.69-33.94,19.79-14.84-3.9-23.69-19.09-19.79-33.94l.08.08h0v.02ZM159.73,128.54l-30.54,122.02c-2.6,10.5-12.93,17.27-23.61,15.53l-41.57-6.94c-12.15-2-19.87-14.15-16.67-26.04l21.52-79.32c8.24-30.2,35.67-51.2,67-51.2h3.64c13.54,0,23.52,12.75,20.22,25.86v.08h.01Z"/>
  <path class="st1" d="M353.86,492.72H30.15c-5.56,0-10.05-4.5-10.05-10.05s4.5-10.05,10.05-10.05h323.7c5.56,0,10.05,4.5,10.05,10.05s-4.5,10.05-10.05,10.05h0Z"/>
</svg>