<?xml version="1.0" encoding="UTF-8"?>
<svg id="Layer_1" xmlns="http://www.w3.org/2000/svg" version="1.1" viewBox="0 0 384 512">
  <!-- Generator: Adobe Illustrator 29.7.1, SVG Export Plug-In . SVG Version: 2.1.1 Build 8)  -->
  <path d="M185.34,45.34c0-24.77,20.08-44.84,44.84-44.84s44.84,20.08,44.84,44.84-20.08,44.84-44.84,44.84-44.84-20.08-44.84-44.84ZM233.26,216.02l-17.84,71.28,46.43,46.43c8.41,8.41,13.17,19.8,13.17,31.67v83.52c0,16.54-13.36,29.89-29.89,29.89s-29.89-13.36-29.89-29.89v-77.26l-69.04-69.04c-14.76-14.76-20.74-36.06-15.79-56.33l19.06-78.47c7.75-31.86,39.89-51.29,71.65-43.35,17.75,4.48,33.26,15.32,43.35,30.55l26.53,39.8h28.87v-22.42c0-12.42,10-22.42,22.42-22.42s22.42,10,22.42,22.42v284c0,12.42-10,22.42-22.42,22.42s-22.42-10-22.42-22.42v-201.79h-36.81c-14.95,0-28.96-7.47-37.27-19.99l-12.42-18.68-.09.09h0ZM81.74,441.35l33.82-128.83c2.8,3.92,5.98,7.66,9.44,11.12l39.14,39.14-24.66,93.7c-4.2,15.97-20.55,25.5-36.53,21.3-15.97-4.2-25.5-20.55-21.3-36.53l.09.09h0ZM133.59,118.12l-32.88,131.35c-2.8,11.3-13.92,18.59-25.41,16.72l-44.75-7.47c-13.08-2.15-21.39-15.23-17.94-28.03l23.17-85.39c8.87-32.51,38.4-55.12,72.12-55.12h3.92c14.57,0,25.32,13.73,21.77,27.84v.09Z"/>
  <path d="M364.71,510.15H16.25c-5.98,0-10.82-4.84-10.82-10.82s4.84-10.82,10.82-10.82h348.45c5.98,0,10.82,4.84,10.82,10.82s-4.84,10.82-10.82,10.82Z"/>
</svg>