<?xml version="1.0" encoding="UTF-8"?>
<svg id="Layer_1" xmlns="http://www.w3.org/2000/svg" version="1.1" viewBox="0 0 113.39 113.39">
  <!-- Generator: Adobe Illustrator 29.7.1, SVG Export Plug-In . SVG Version: 2.1.1 Build 8)  -->
  <defs>
    <style>
      .st0 {
        fill: #231f20;
      }
    </style>
  </defs>
  <path class="st0" d="M91.97,100.24c1.43-9.5-5.06-16.36-14.64-15.52-1.07-4.76-3.9-8.05-7.69-10.89v-12.4c.66-1.99,11.3-4.67,7.95-10.28-2.44-4.1-8.01,2.1-8.76,1.41-2.29-13.44-21.08-12.89-23.85,0-1.16.87-3.5-4.03-6.98-2.46-6.32,2.85,3.32,10.04,6.87,10.98v11c-14.31,5.46-14.26,22.51-11.1,35.16-17.19-6.9-29.64-24.21-32.17-42.49C-5.25,15.17,51.05-17.99,91.2,12.31c28.46,21.48,29.4,66.38.77,87.93ZM37.78,21.86c-7.17,1.63-6.71,12.77.6,13.85,11.15,1.65,10.58-16.39-.6-13.85ZM72.84,21.86c-7.17,1.63-6.71,12.77.6,13.85,11.15,1.65,10.58-16.39-.6-13.85Z"/>
  <path class="st0" d="M50.05,93.09c.43.73,13.43,9.08,14.27,9.23,7.98,1.4,10.43-12.25,17.15-10.2,9.78,2.97-4.12,17.43-9.35,19.48-4.34,1.71-17.01,1.85-21.81,1.2-11.04-1.5-11.77-13.05-10.92-22.01,1.13-11.89,9.21-14.07,19.96-12.97,7,.72,11.48,5.1,11.62,12.25.21,10.5-11.32,8.27-10.88-1.07l-9.54-.36c-.84.6-1,3.61-.51,4.46Z"/>
  <path class="st0" d="M62.52,70.79h-10.52v-17.18c0-2.91,6.11-5.25,8.76-2.45.28.3,1.76,3.64,1.76,3.85v15.77Z"/>
</svg>