<?xml version="1.0" encoding="UTF-8"?>
<svg id="Layer_1" xmlns="http://www.w3.org/2000/svg" version="1.1" viewBox="0 0 448 512">
  <!-- Generator: Adobe Illustrator 29.7.1, SVG Export Plug-In . SVG Version: 2.1.1 Build 8)  -->
  <defs>
    <style>
      .st0 {
        fill: #394622;
      }
    </style>
  </defs>
  <path class="st0" d="M119.32,264.83c37.66,0,68.19-30.53,68.19-68.19s-30.53-68.19-68.19-68.19-68.19,30.53-68.19,68.19,30.53,68.19,68.19,68.19ZM94.98,290.4C42.51,290.4,0,332.91,0,385.38c0,8.74,7.08,15.82,15.82,15.82h207.01c8.74,0,15.82-7.08,15.82-15.82,0-52.47-42.51-94.98-94.98-94.98h-48.69Z"/>
  <path class="st0" d="M328.68,264.83c37.66,0,68.19-30.53,68.19-68.19s-30.53-68.19-68.19-68.19-68.19,30.53-68.19,68.19,30.53,68.19,68.19,68.19ZM304.33,290.4c-52.47,0-94.98,42.51-94.98,94.98,0,8.74,7.08,15.82,15.82,15.82h207.01c8.74,0,15.82-7.08,15.82-15.82,0-52.47-42.51-94.98-94.98-94.98h-48.69Z"/>
</svg>